<svg width="51" height="48" viewBox="0 0 51 48" fill="none" xmlns="http://www.w3.org/2000/svg">
<path d="M34 36C35.0609 36 36.0783 36.4214 36.8284 37.1716C37.5786 37.9217 38 38.9391 38 40C38 41.0609 37.5786 42.0783 36.8284 42.8284C36.0783 43.5786 35.0609 44 34 44C32.9391 44 31.9217 43.5786 31.1716 42.8284C30.4214 42.0783 30 41.0609 30 40C30 37.78 31.78 36 34 36ZM2 4H8.54L10.42 8H40C40.5304 8 41.0391 8.21071 41.4142 8.58579C41.7893 8.96086 42 9.46957 42 10C42 10.34 41.9 10.68 41.76 11L34.6 23.94C33.92 25.16 32.6 26 31.1 26H16.2L14.4 29.26L14.34 29.5C14.34 29.6326 14.3927 29.7598 14.4864 29.8536C14.5802 29.9473 14.7074 30 14.84 30H38V34H14C12.9391 34 11.9217 33.5786 11.1716 32.8284C10.4214 32.0783 10 31.0609 10 30C10 29.3 10.18 28.64 10.48 28.08L13.2 23.18L6 8H2V4ZM14 36C15.0609 36 16.0783 36.4214 16.8284 37.1716C17.5786 37.9217 18 38.9391 18 40C18 41.0609 17.5786 42.0783 16.8284 42.8284C16.0783 43.5786 15.0609 44 14 44C12.9391 44 11.9217 43.5786 11.1716 42.8284C10.4214 42.0783 10 41.0609 10 40C10 37.78 11.78 36 14 36ZM32 22L37.56 12H12.28L17 22H32Z" fill="#DFBB58"/>
<g clip-path="url(#clip0_47_7282)">
<rect x="34.5601" width="16.32" height="14.88" rx="7.44" fill="#B3261E"/>
<path d="M41.7049 6.94434H42.4784C42.7791 6.94434 43.028 6.89242 43.2249 6.78857C43.4255 6.68473 43.5741 6.5415 43.6707 6.35889C43.7674 6.17627 43.8158 5.9668 43.8158 5.73047C43.8158 5.4834 43.771 5.27214 43.6815 5.09668C43.5955 4.91764 43.4631 4.77979 43.284 4.68311C43.1086 4.58643 42.8848 4.53809 42.6126 4.53809C42.3835 4.53809 42.1758 4.58464 41.9896 4.67773C41.807 4.76725 41.662 4.89616 41.5545 5.06445C41.4471 5.22917 41.3934 5.42611 41.3934 5.65527H40.0936C40.0936 5.23991 40.2028 4.87109 40.4212 4.54883C40.6397 4.22656 40.9369 3.97412 41.3128 3.7915C41.6924 3.60531 42.1185 3.51221 42.5912 3.51221C43.096 3.51221 43.5365 3.59635 43.9124 3.76465C44.292 3.92936 44.5874 4.17643 44.7987 4.50586C45.0099 4.83529 45.1156 5.24349 45.1156 5.73047C45.1156 5.95247 45.0636 6.17806 44.9598 6.40723C44.856 6.63639 44.702 6.84587 44.4979 7.03564C44.2938 7.22184 44.0396 7.37402 43.7352 7.49219C43.4308 7.60677 43.0781 7.66406 42.6771 7.66406H41.7049V6.94434ZM41.7049 7.9541V7.24512H42.6771C43.1354 7.24512 43.5257 7.29883 43.848 7.40625C44.1738 7.51367 44.4388 7.66227 44.6429 7.85205C44.847 8.03825 44.9956 8.2513 45.0887 8.49121C45.1854 8.73112 45.2337 8.98535 45.2337 9.25391C45.2337 9.61914 45.1675 9.94499 45.035 10.2314C44.9061 10.5143 44.7217 10.7542 44.4818 10.9512C44.2419 11.1481 43.9608 11.2967 43.6385 11.397C43.3198 11.4972 42.9725 11.5474 42.5965 11.5474C42.2599 11.5474 41.9377 11.5008 41.6297 11.4077C41.3218 11.3146 41.0461 11.1768 40.8026 10.9941C40.5591 10.8079 40.3657 10.577 40.2225 10.3013C40.0829 10.022 40.013 9.69971 40.013 9.33447H41.3075C41.3075 9.56722 41.3612 9.77311 41.4686 9.95215C41.5796 10.1276 41.7336 10.2655 41.9305 10.3657C42.131 10.466 42.3602 10.5161 42.618 10.5161C42.8901 10.5161 43.1247 10.4678 43.3216 10.3711C43.5186 10.2744 43.669 10.1312 43.7728 9.94141C43.8802 9.75163 43.9339 9.52246 43.9339 9.25391C43.9339 8.94954 43.8748 8.70247 43.7567 8.5127C43.6385 8.32292 43.4702 8.18327 43.2518 8.09375C43.0334 8.00065 42.7756 7.9541 42.4784 7.9541H41.7049Z" fill="white"/>
</g>
<defs>
<clipPath id="clip0_47_7282">
<rect x="34.5601" width="16.32" height="14.88" rx="7.44" fill="white"/>
</clipPath>
</defs>
</svg>
