<?xml version="1.0" encoding="UTF-8"?><svg id="Calque_2" xmlns="http://www.w3.org/2000/svg" viewBox="0 0 244.26 81.96"><defs><style>.cls-1{fill:none;stroke:#dfbb58;stroke-miterlimit:10;stroke-width:4px;}.cls-2{fill:#dfbb58;}</style></defs><g id="Calque_1-2"><polyline class="cls-1" points="215.94 32.86 204.37 52.15 193.66 32.86"/><rect class="cls-1" x="168.06" y="33.61" width="11.41" height="11.41" transform="translate(134.45 213.09) rotate(-90)"/><polyline class="cls-1" points="188.06 55.02 168.06 55.02 168.06 35.02"/><polyline class="cls-1" points="135.05 57.68 135.05 34.68 147.38 42.89"/><polyline class="cls-1" points="157.41 57.68 157.41 34.68 145.09 42.89"/><polygon class="cls-1" points="221.54 53.85 230.62 36.2 240.8 53.71 221.54 53.85"/><line class="cls-1" x1="118.66" y1="69.94" x2="118.66" y2="17.94"/><path class="cls-2" d="m18.22,61.9c.76,1.95.53,4.09,1.11,6.09s1.58,3.63,2.72,5.23c1.06,1.48,2.17,3.14,3.6,4.3s3.04,1.96,4.71,2.58c3.02,1.13,6.67,2.02,9.9,1.83,1.76-.1,3.29-.6,4.73-1.64,1.53-1.11,2.79-2.56,4.39-3.57s.12-3.63-1.51-2.59c-2.52,1.6-4.42,4.6-7.6,4.8-2.9.18-6.07-.67-8.79-1.61-1.39-.48-2.88-1.22-4.01-2.17-1.3-1.1-2.35-2.72-3.3-4.12s-1.73-2.81-2.1-4.43c-.42-1.83-.26-3.72-.96-5.5s-3.6-1-2.89.8h0Z"/><path class="cls-2" d="m87.06,29.69c.56-1.67.84-3.61,1.08-5.35.22-1.62-.27-2.87-1.21-4.2-1.92-2.69-4.91-4.35-7.96-5.48-1.42-.53-3.13-1.18-4.66-1.23-.91-.03-1.63.39-2.48.6s-1.51.59-2.23,1.13c-1.47,1.1-3.43,1.51-5.16,2.06-1.9.61-3.78,1.25-5.56,2.15l2.05.54-1.42-1.86c-.51-.67-1.12-1.26-1.24-2.02-.33-2.14-.71-4.28-1.07-6.42-.31-1.87-.62-3.84-1.68-5.46C53.49,1.1,49.69.32,46.27.05c-2.83-.22-5.52.18-7.76,1.96-1.8,1.44-4.42,3.41-4.58,5.91-.13,1.93,2.87,1.92,3,0,.03-.46,1.31-1.68,1.86-2.21.68-.64,1.68-1.54,2.24-1.89,1.33-.84,3.09-.88,4.61-.81,1.93.09,4.07.35,5.77,1.32,1.86,1.07,2.35,3.01,2.7,4.99.41,2.34.78,4.69,1.17,7.03.23,1.37.59,1.87,1.4,2.92l1.64,2.15c.51.67,1.25.94,2.05.54,2.97-1.51,6.28-2.11,9.33-3.4.69-.29,1.23-.73,1.84-1.16s1.27-.52,1.95-.78c1.17-.44,2.69.24,3.84.63,2.5.83,5.13,2.1,6.82,4.19.35.44.58,1.2.97,1.57l.09.23c.05-.39.06-.43.02-.13-.02.31-.05.64-.1.95-.27,1.59-.47,3.29-.99,4.82-.62,1.83,2.28,2.62,2.89.8h0Z"/><path class="cls-2" d="m42.59,42.58c-4.33,1.4-8.65,3.15-10.8,7.45-1.01,2.02-1.55,4.21-2.33,6.32-.37,1.01-.82,2.01-1.43,2.91-.76,1.11-1.6,1.37-2.9,1.31-2.53-.11-5.25-.3-7.62-1.27-2.18-.9-3.83-2.58-5.1-4.53s-2.17-3.97-3.11-6.03c-1.15-2.5-2.31-4.98-3.43-7.49-2.15-4.82-4.05-10.22-2.19-15.44,1.59-4.47,5.14-8.62,8.66-11.72,3.7-3.27,8.31-5.72,13.32-5.99,2.7-.15,5.37.27,7.99.91,2.19.53,4.54,1.05,6.54,2.13,2.14,1.15,3.15,2.98,2.22,5.36-1,2.55-2.96,4.62-4.05,7.14-2.11,4.92-1.8,11.08,2.52,14.74.67.57,1.92.64,2.36-.3.85-1.83.84-3.64.54-5.6-.25-1.59-.97-3.72-.14-5.25.27-.5.81-1.02,1.4-1.07.62-.06.91.4,1.27.84,1.01,1.23,1.91,2.07,3.6,1.82,1.06-.16,1.24-1.43.9-2.2-.88-1.98-2.53-3.36-4.54-4.09l.66,2.51c1.4-1.67,3.03-3.04,4.97-4.05,1.55-.81,4.32-2.11,6.04-1.21,1.04.55.71,1.23.57,2.19-.18,1.21.22,2.34.56,3.48.77,2.55,1.54,5.1,2.32,7.64l2.51-1.46c-2-2.04-4.71-3.15-7.57-3.06-1.03.03-2,1.29-1.3,2.26,1.66,2.27,4.45,4.84,7.36,2.84l-2.2-1.69c-.59,4.18-3.47,7.73-7.55,8.94-1.32.39-1.54,2.63,0,2.89,5.04.85,10.29-.17,14.3-3.45,1.99-1.63,3.41-3.82,4.72-6,.65-1.08,1.28-2.18,1.98-3.24.59-.9,1.65-2.92,2.85-2.7,2.76.49,5.68,1.45,8.19,2.69.5.25,1.07.53,1.45.96s.56.97.98,1.37c.14.13.39.24.5.39-.15-.21,0,.28,0,.28.28.66.51,1.33.85,1.97.55,1.02,1.21,1.98,1.79,2.98.53.92.86,1.89,1.24,2.88s.76,1.88,1.02,2.86c.28,1.04.03,2,0,3.05-.04,1.21.28,2.41.29,3.62s-.14,2.5-.45,3.73c-.61,2.47-1.73,4.76-3.16,6.86-2.95,4.36-7.2,7.84-11.92,10.13-5.05,2.44-10.7,3.53-16.26,3.88-2.73.17-5.73.45-8.41-.22-2.4-.59-4.34-2.31-5.32-4.58-1.16-2.7-.74-5.89.74-8.38.8-1.35,1.89-2.48,2.72-3.81s1.3-2.69,1.49-4.19c.36-2.8-.37-5.82-2.12-8.05s-4.25-3.31-6.78-4.25c-1.81-.67-2.6,2.23-.8,2.89,2.32.85,4.7,1.94,5.89,4.23,1.38,2.64,1.15,5.76-.5,8.2s-3.49,4.55-4.06,7.59c-.48,2.59-.19,5.22.99,7.59s3.05,4.11,5.36,5.09c2.78,1.18,5.92,1.07,8.88.97,5.77-.21,11.63-1.07,17.02-3.22,9.76-3.89,19.76-13.2,19.68-24.48,0-1.27-.35-2.53-.28-3.79.07-1.18.24-2.25-.05-3.43-.48-2-1.32-4.23-2.27-6.06-.59-1.14-1.33-2.18-1.96-3.3s-.77-2.39-1.62-3.28c-.74-.78-1.27-1.7-2.18-2.36-1.11-.81-2.46-1.3-3.73-1.8-1.65-.64-3.34-1.18-5.05-1.62s-3.34-.86-4.79.33c-2.29,1.88-3.67,4.88-5.19,7.35-1.6,2.61-3.45,4.85-6.26,6.21s-5.97,1.68-8.96,1.18v2.89c4.99-1.49,8.91-5.84,9.64-11.04.16-1.15-1-2.52-2.2-1.69-1.33.91-2.56-.82-3.26-1.77l-1.3,2.26c2.1-.06,3.98.68,5.45,2.18,1.03,1.06,2.94-.02,2.51-1.46-.48-1.59-.97-3.18-1.45-4.78-.24-.8-.48-1.59-.72-2.39-.22-.73-.63-1.56-.67-2.33-.03-.64.29-1.25.3-1.89s-.13-1.18-.39-1.73c-.52-1.08-1.47-1.89-2.59-2.31-2.49-.93-5.37.1-7.66,1.16-2.43,1.12-4.58,2.83-6.29,4.88-.75.9-.45,2.11.66,2.51,1.32.48,2.19,1.45,2.75,2.71l.9-2.2c.37-.06-.13-.35-.3-.56-.26-.31-.5-.65-.78-.95-.53-.55-1.16-.97-1.91-1.16-1.64-.41-3.42.4-4.49,1.64-1.32,1.52-1.46,3.61-1.23,5.53s1.13,4.26.24,6.16l2.36-.3c-4.51-3.82-3.12-9.94-.3-14.32,1.39-2.15,3.02-4.43,3.1-7.1.07-2.3-1.16-4.28-2.98-5.59s-4.03-1.95-6.15-2.55c-2.78-.78-5.62-1.43-8.51-1.6-5.51-.32-10.82,1.51-15.26,4.72s-7.93,7.2-10.52,11.74c-2.91,5.11-2.98,10.6-1.14,16.1.93,2.77,2.18,5.42,3.4,8.07s2.32,5.2,3.59,7.74c2.37,4.7,5.69,8.37,11.04,9.45,1.52.3,3.06.45,4.6.56,1.39.11,2.81.23,4.13-.33,2.53-1.08,3.71-4.13,4.54-6.55.88-2.54,1.48-5.4,3.43-7.39s4.8-2.9,7.41-3.75c1.83-.59,1.05-3.49-.8-2.89h0Z"/><path class="cls-2" d="m50.85,42.37c.59-.08,1.14-.37,1.67-.63.11-.06.23-.11.34-.17.34-.16-.17.04.09-.03.12-.03.23-.06.35-.1.16-.04-.13.03-.14.02,0,0,.37,0,.12,0-.19,0-.02,0,.03.02.08.02.16.04.24.06.23.05.46.1.69.1.44.01.88-.1,1.27-.33.71-.42,1.02-1.15,1.31-1.87.25-.61.5-1.21.75-1.82.33-.81.49-1.62.02-2.42-.36-.61-.95-1.1-1.43-1.61-.55-.57-1.08-1.21-1.92-1.32-.62-.08-1.19.13-1.64.56-.34.33-.51.76-.68,1.19-.28.71-.56,1.43-.83,2.14l2.89.8c.17-.84.08-1.7-.41-2.42-.3-.44-.67-.78-1.2-.91-.75-.18-1.5.19-1.88.85-.27.47-.46,1-.7,1.49-.12.23-.24.47-.39.68-.04.06-.08.12-.13.18.12-.16.13-.17.03-.04-.11.11-.2.22-.32.32-.86.78-.37,2.21.66,2.51-.23-.07-.4-.24-.48-.46-.04-.1-.06-.2-.05-.31.04-.2.05-.24.01-.12-.03.1-.02.08.04-.06-.07.16-.14.32-.2.48-.04.11-.07.23-.09.35-.16.83-.03,1.56.32,2.32.33.72,1.42.95,2.05.54.74-.48.89-1.29.54-2.05.07.18.08.18.02.02-.04-.17-.04-.16,0,.04,0-.08,0-.16,0-.24-.04.2-.04.21,0,.04.02-.08.04-.15.07-.23-.1.24-.07.16.1-.24.09-.24.16-.5.16-.76,0-1.04-.67-1.93-1.67-2.22l.66,2.51c.51-.46.91-1.04,1.22-1.65.14-.27.26-.55.39-.82.06-.14.12-.28.19-.41.03-.07.06-.14.1-.2.13-.23.04-.16-.28.23l-1.16.15-.43-.26c-.11-.14-.13-.17-.08-.08.1.17-.11-.33,0,0,.08.24-.03-.05,0-.07,0,.06,0,.11,0,.17,0,.12,0,.07.02-.12-.15.77.22,1.66,1.05,1.85s1.54-.26,1.85-1.05c.24-.63.49-1.25.73-1.88.03-.06.05-.13.08-.19.07-.19.07-.17-.02.05.03-.06.06-.12.1-.17-.31.48-.78.59-1.39.35l-.13-.11c.05.05.1.09.15.15.14.14.27.28.4.42.24.24.47.49.71.73.1.1.2.21.3.31.05.05.1.1.15.16-.12-.16-.13-.18-.04-.05-.06-.11-.09-.24-.08-.36v-.15c.05.06-.15.43-.18.5-.12.3-.25.61-.37.91s-.25.61-.37.91c-.04.09-.07.17-.11.26.08-.19.1-.23.05-.13-.02.03-.14.32-.17.31.14-.17.16-.2.05-.08.09-.1.2-.16.33-.2.11-.03.49.06.21-.03-.35-.1-.72-.17-1.08-.18-.7-.01-1.34.25-1.96.54-.23.11-.46.22-.69.34-.15.07-.13.06.06-.02-.07.03-.13.05-.2.07-.14.04-.28.07-.42.09-.78.11-1.27,1.14-1.05,1.85.28.85,1.01,1.17,1.85,1.05h0Z"/><path class="cls-2" d="m48.61,36.35c-.6-1.01-1.99-1.32-2.98-.67-.41.27-.73.65-.97,1.08-.08.14-.15.29-.23.43l-.06.09c-.08.11-.08.12,0,.02.17-.11-.08.04-.11.07l2.51.66c-.24-.62-.49-1.25-.72-1.87-.12-.32-.23-.63-.3-.96-.02-.08-.04-.46-.03-.13,0-.18,0-.35,0-.52-.02.27,0,.03.03-.1.04-.17.09-.33.15-.49.01-.04.19-.42.04-.12.07-.16.15-.31.22-.47.05-.11.11-.22.16-.33.03-.07.07-.13.11-.19-.13.15-.14.17-.03.05-.27.25.14-.05-.16.11.15-.08.34-.13.51-.19.3-.1.6-.19.91-.28.15-.04.3-.06.45-.11.11-.02.07-.02-.13.01.27,0,.15-.04-.35-.13-.41-.27-.57-.64-.47-1.09-.01.07-.03.14-.06.21l.06-.16c-.03.06-.07.13-.1.19-.16.28-.34.55-.5.83-.2.32-.42.65-.53,1.02-.18.62-.01,1.25.41,1.73.34.39.85.55,1.35.58.22.01.45-.02.67-.07.16-.03.13-.03-.1,0-.14-.02-.27-.05-.4-.1l-.54-.54c-.17-.35-.17-.67,0-.95-.03.07-.07.13-.11.2-.06.1-.12.19-.17.28-.14.25-.25.51-.36.77-.08.18-.16.35-.24.53-.05.1-.11.2-.16.3-.09.14-.06.11.08-.08-.11.12-.06.08.15-.11-.68.39-.97,1.38-.54,2.05s1.32.96,2.05.54c.98-.56,1.19-1.78,1.73-2.68.51-.84.71-1.89-.06-2.66-.37-.37-.89-.55-1.41-.54-.2,0-.4.05-.6.08-.17.03-.13.03.12-.02.36.02.65.19.89.52l.2.76c-.19.49-.22.61-.1.38.05-.08.1-.16.14-.24.1-.16.19-.32.29-.48.16-.26.33-.51.46-.78.45-.89.55-2.02-.23-2.77s-1.75-.62-2.67-.37c-.71.19-1.5.41-2.14.78-.69.41-1.03,1.12-1.35,1.82-.35.77-.61,1.5-.67,2.35-.11,1.46.65,2.9,1.16,4.22.19.5.5.9,1.05,1.05s1.02-.05,1.46-.39c.39-.3.62-.75.85-1.17.04-.08.1-.15.14-.23.08-.15-.19.2,0,.02-.41.38-1.06.25-1.35-.24.4.67,1.37.98,2.05.54s.97-1.33.54-2.05h0Z"/></g></svg>