<svg width="48" height="48" viewBox="0 0 48 48" fill="none" xmlns="http://www.w3.org/2000/svg">
<path d="M42 24.0002C42.0057 27.5737 40.9428 31.0673 38.948 34.0322C37.3028 36.4863 35.0783 38.4971 32.4711 39.8868C29.8639 41.2766 26.9545 42.0024 24 42.0002C21.0455 42.0024 18.1361 41.2766 15.5289 39.8868C12.9217 38.4971 10.6972 36.4863 9.052 34.0322C7.48546 31.6971 6.4878 29.0273 6.13901 26.2371C5.79022 23.4469 6.09999 20.6137 7.0435 17.9648C7.987 15.3159 9.53799 12.9248 11.5721 10.9833C13.6063 9.04186 16.067 7.60396 18.757 6.7849C21.447 5.96584 24.2915 5.78841 27.0625 6.26683C29.8334 6.74525 32.4538 7.86622 34.7134 9.53986C36.9731 11.2135 38.8092 13.3933 40.0745 15.9044C41.3399 18.4156 41.9994 21.1883 42 24.0002Z" stroke="#DFBB58" stroke-width="2"/>
<path d="M26 18C26 18.5304 25.7893 19.0391 25.4142 19.4142C25.0391 19.7893 24.5304 20 24 20V24C25.5913 24 27.1174 23.3679 28.2426 22.2426C29.3679 21.1174 30 19.5913 30 18H26ZM24 20C23.4696 20 22.9609 19.7893 22.5858 19.4142C22.2107 19.0391 22 18.5304 22 18H18C18 19.5913 18.6321 21.1174 19.7574 22.2426C20.8826 23.3679 22.4087 24 24 24V20ZM22 18C22 17.4696 22.2107 16.9609 22.5858 16.5858C22.9609 16.2107 23.4696 16 24 16V12C22.4087 12 20.8826 12.6321 19.7574 13.7574C18.6321 14.8826 18 16.4087 18 18H22ZM24 16C24.5304 16 25.0391 16.2107 25.4142 16.5858C25.7893 16.9609 26 17.4696 26 18H30C30 16.4087 29.3679 14.8826 28.2426 13.7574C27.1174 12.6321 25.5913 12 24 12V16ZM10.332 35.712L8.414 35.142L8.104 36.188L8.814 37.014L10.332 35.712ZM37.668 35.712L39.188 37.014L39.896 36.188L39.586 35.142L37.668 35.712ZM18 32H30V28H18V32ZM18 28C15.8461 27.9993 13.7496 28.6941 12.0224 29.981C10.2951 31.2678 9.02959 33.0779 8.414 35.142L12.248 36.282C12.6179 35.0441 13.3776 33.9587 14.4139 33.1872C15.4503 32.4157 16.708 31.9993 18 32V28ZM24 40C21.691 40.0026 19.4089 39.5042 17.3112 38.5391C15.2136 37.574 13.3503 36.1652 11.85 34.41L8.814 37.014C10.6898 39.207 13.0188 40.9672 15.6405 42.1733C18.2622 43.3793 21.1142 44.0026 24 44V40ZM30 32C32.714 32 35.012 33.804 35.752 36.284L39.586 35.142C38.9705 33.0783 37.7033 31.2684 35.9765 29.9816C34.2496 28.6947 32.1536 27.9998 30 28V32ZM36.15 34.41C34.6497 36.1652 32.7864 37.574 30.6888 38.5391C28.5911 39.5042 26.309 40.0026 24 40V44C26.8858 44.0026 29.7378 43.3793 32.3595 42.1733C34.9812 40.9672 37.3122 39.207 39.188 37.014L36.15 34.41Z" fill="#DFBB58"/>
</svg>
